<?xml version="1.0" standalone="yes"?>
<svg xmlns="http://www.w3.org/2000/svg" width="1337" height="172">
<path style="fill:#ffffff; stroke:none;" d="M0 0L0 73C21.353 70.6149 43.4776 73.8798 65 71.8302C108.765 67.6625 152.143 60.0928 196 57.0895C211.234 56.0463 227.766 56.0463 243 57.0895C249.924 57.5636 258.084 59.8857 264.96 58.848C269.045 58.2314 271.094 54.4009 273.669 51.5756C277.708 47.1432 282.105 42.9323 287.039 39.5069C305.106 26.9655 326.698 23.2778 348 28.7608C370.305 34.5021 389.273 52.5796 397.279 74C399.276 79.341 401.215 85.3148 401.826 91C402.145 93.9628 401.332 97.8374 403.603 100.185C405.929 102.589 410.108 103.795 413 105.424C420.26 109.514 427.694 113.293 435 117.306C468.781 135.858 501.438 151.622 541 148.91C580.523 146.201 612.986 123.817 644 101.424C678.896 76.2281 713.568 50.5046 751 29.1505C773.663 16.2216 802.316 1.55075 829 1C822.806 -1.59906 813.686 0 807 0L758 0L588 0L0 0z"/>
<path style="fill:#e6ebe1; stroke:none;" d="M829 0C830.248 0.684753 830.548 0.748795 832 1C830.752 0.315125 830.452 0.251236 829 0z"/>
<path style="fill:#cdd6c3; stroke:none;" d="M832 0C833.248 0.684753 833.548 0.748795 835 1C833.751 0.315079 833.452 0.251251 832 0z"/>
<path style="fill:#b4c2a5; stroke:none;" d="M835 0C839.471 1.87631 845.183 1 850 1C845.529 -0.876266 839.817 0 835 0z"/>
<path style="fill:#cdd6c3; stroke:none;" d="M850 0C851.506 0.683075 852.315 0.825882 854 1C852.494 0.316971 851.685 0.174103 850 0z"/>
<path style="fill:#e6ebe1; stroke:none;" d="M854.667 0.333328C854.222 0.777954 855.278 0.722107 855.333 0.666672C855.778 0.222366 854.722 0.277573 854.667 0.333328z"/>
<path style="fill:#ffffff; stroke:none;" d="M856 0C860.857 2.09514 866.82 2.36601 872 3.66513C879.095 5.44444 886.354 8.2653 893 11.3086C931.228 28.8125 966.978 51.2596 1005 69.2191C1062.52 96.3871 1121.88 116.995 1183 134.421C1218.21 144.461 1254.55 155.356 1291 159.715C1305.96 161.504 1321.92 161 1337 161L1337 0L856 0z"/>
<path style="fill:#e0e6da; stroke:none;" d="M822.667 1.33333C822.222 1.77794 823.278 1.72212 823.333 1.66667C823.778 1.22237 822.722 1.27757 822.667 1.33333z"/>
<path style="fill:#c0ccb4; stroke:none;" d="M824 1C825.248 1.68471 825.549 1.74883 827 2C825.751 1.31506 825.452 1.25125 824 1z"/>
<path style="fill:#9bae88; stroke:none;" d="M402 100C401.956 115.821 395.669 131.904 385.557 144.001C380.868 149.611 375.197 153.961 370 159C379.077 161.871 388.693 163.521 398 165.51C407.226 167.481 416.64 170.695 426 171.816C434.467 172.829 443.476 172 452 172L501 172L537 172C543.14 172 550.03 172.857 556 171.215C575.406 165.875 591.259 153.231 607 141.374C619.96 131.612 633.082 122.55 647 114.2C668.697 101.182 690.303 88.0194 712 75C731.059 63.5634 750.656 51.6322 772 45.0255C786.408 40.5656 802.058 38.2762 817 36.8302C878.563 30.8726 956.495 39.8018 988.68 101C1000.3 123.087 1001 147.667 1001 172L1337 172L1337 161C1322.26 161 1306.63 161.464 1292 159.715C1255.55 155.356 1219.21 144.461 1184 134.421C1124.65 117.499 1067.12 97.4577 1011 71.6914C982.062 58.4038 953.989 42.8287 926 27.6914C903.652 15.6047 880.043 2.17973 854 1.03935C777.326 -2.3181 711.716 51.3377 653 94.1512C618.026 119.653 584.197 144.286 540 149.714C488.327 156.06 446.586 118.563 402 100z"/>
<path style="fill:#b4c2a5; stroke:none;" d="M858.667 1.33333C858.222 1.77794 859.278 1.72212 859.333 1.66667C859.778 1.22232 858.722 1.27766 858.667 1.33333z"/>
<path style="fill:#d3dbcb; stroke:none;" d="M860 1C861.248 1.68475 861.548 1.74879 863 2C861.751 1.31511 861.452 1.25124 860 1z"/>
<path style="fill:#e6ebe1; stroke:none;" d="M816.667 2.33333C816.222 2.77794 817.278 2.72212 817.333 2.66667C817.778 2.22227 816.722 2.27776 816.667 2.33333z"/>
<path style="fill:#bac7ad; stroke:none;" d="M818.667 2.33333C818.222 2.7778 819.278 2.72226 819.333 2.66667C819.778 2.22237 818.722 2.27757 818.667 2.33333z"/>
<path style="fill:#cdd6c3; stroke:none;" d="M865.667 2.33333C865.222 2.77794 866.278 2.72212 866.333 2.66667C866.778 2.22232 865.722 2.27766 865.667 2.33333z"/>
<path style="fill:#bac7ad; stroke:none;" d="M813.667 3.33333C813.222 3.77791 814.278 3.7222 814.333 3.66667C814.778 3.22232 813.722 3.27766 813.667 3.33333z"/>
<path style="fill:#d9e1d2; stroke:none;" d="M870.667 3.33333C870.222 3.77795 871.278 3.72211 871.333 3.66667C871.778 3.22227 870.722 3.27776 870.667 3.33333z"/>
<path style="fill:#b4c2a5; stroke:none;" d="M809.667 4.33333C809.222 4.77791 810.278 4.72218 810.333 4.66667C810.778 4.22232 809.722 4.27766 809.667 4.33333z"/>
<path style="fill:#e0e6da; stroke:none;" d="M874.667 4.33333C874.222 4.77795 875.278 4.72209 875.333 4.66667C875.778 4.22227 874.722 4.27776 874.667 4.33333z"/>
<path style="fill:#b4c2a5; stroke:none;" d="M805.667 5.33333C805.222 5.77786 806.278 5.72215 806.333 5.66667C806.778 5.22232 805.722 5.27766 805.667 5.33333z"/>
<path style="fill:#bac7ad; stroke:none;" d="M798.667 7.33333C798.222 7.77798 799.278 7.72203 799.333 7.66667C799.778 7.22232 798.722 7.27766 798.667 7.33333M795.667 8.33333C795.222 8.77794 796.278 8.72212 796.333 8.66667C796.778 8.22232 795.722 8.27769 795.667 8.33333z"/>
<path style="fill:#c7d1bc; stroke:none;" d="M891 10L892 11L891 10z"/>
<path style="fill:#d3dbcb; stroke:none;" d="M787 11L788 12L787 11M782 13L783 14L782 13z"/>
<path style="fill:#b4c2a5; stroke:none;" d="M777.667 15.3333C777.222 15.7779 778.278 15.7222 778.333 15.6667C778.778 15.2223 777.722 15.2777 777.667 15.3333z"/>
<path style="fill:#d3dbcb; stroke:none;" d="M775 16L776 17L775 16z"/>
<path style="fill:#cdd6c3; stroke:none;" d="M773 17L774 18L773 17z"/>
<path style="fill:#f3f4f0; stroke:none;" d="M320 26.4637C292.377 31.3002 267.735 48.1523 258.9 76C242.878 126.503 286.967 179.825 340 170.536C371.775 164.971 398.522 140.058 401.829 107C405.641 68.9096 378.956 33.1933 341 27.5725C334.007 26.537 327.08 25.224 320 26.4637z"/>
<path style="fill:#cdd6c3; stroke:none;" d="M755 26L756 27L755 26z"/>
<path style="fill:#c7d1bc; stroke:none;" d="M923 26L924 27L923 26z"/>
<path style="fill:#cdd6c3; stroke:none;" d="M753 27L754 28L753 27M925 27L926 28L925 27z"/>
<path style="fill:#d3dbcb; stroke:none;" d="M927 28L928 29L927 28z"/>
<path style="fill:#cdd6c3; stroke:none;" d="M746 31L747 32L746 31M938 34L939 35L938 34M739 35L740 36L739 35z"/>
<path style="fill:#80837f; stroke:none;" d="M832 35C834.052 35.8743 835.747 35.9528 838 36C835.948 35.1258 834.253 35.0472 832 35z"/>
<path style="fill:#70687b; stroke:none;" d="M838 35C843.959 37.5005 852.564 36 859 36C853.041 33.4995 844.436 35 838 35z"/>
<path style="fill:#8e9a84; stroke:none;" d="M859 35C862.163 36.3273 865.586 35.9996 869 36C865.837 34.6726 862.414 35.0004 859 35z"/>
<path style="fill:#cdd6c3; stroke:none;" d="M940 35L941 36L940 35z"/>
<path style="fill:#70687b; stroke:none;" d="M819 36C821.052 36.8743 822.747 36.9528 825 37C822.948 36.1258 821.253 36.0472 819 36z"/>
<path style="fill:#5f4776; stroke:none;" d="M555 171C559.969 173.085 566.65 172 572 172L602 172C606.71 172 612.537 172.898 617 171.146C622.418 169.019 627.235 164.309 632 161.025C641.275 154.633 650.982 148.427 661 143.258C670.278 138.472 680.107 135.814 690 132.656C709.744 126.354 730.199 120.405 751 119.375C769.969 118.436 789.634 126.106 807 132.811C814.424 135.677 822.649 137.898 829 142.823C835.732 148.043 842.072 154.495 847.561 161C850.321 164.271 853.065 169.7 857.174 171.397C861.079 173.009 866.846 172 871 172L900 172L1001 172C999.275 162.709 1000.55 153.368 999.911 144C998.795 127.718 994.808 110.112 986.396 96C964.105 58.6072 924.323 43.0884 883 37.7184C846.254 32.9432 803.485 34.3112 768.039 46.0502C745.584 53.4869 725.161 66.5038 705 78.6003C682.307 92.2157 659.391 105.576 637 119.681C610.138 136.603 586.329 162.448 555 171z"/>
<path style="fill:#80837f; stroke:none;" d="M872 36C873.769 36.7789 875.036 36.9124 877 37C875.231 36.2211 873.964 36.0876 872 36z"/>
<path style="fill:#7c7d7e; stroke:none;" d="M808 37C810.052 37.8743 811.747 37.9528 814 38C811.948 37.1258 810.253 37.0472 808 37z"/>
<path style="fill:#80837f; stroke:none;" d="M881 37C882.506 37.6831 883.315 37.8259 885 38C883.494 37.317 882.685 37.1741 881 37z"/>
<path style="fill:#d3dbcb; stroke:none;" d="M734 38L735 39L734 38z"/>
<path style="fill:#7c7d7e; stroke:none;" d="M889 38C890.248 38.6847 890.549 38.7488 892 39C890.752 38.3151 890.452 38.2512 889 38z"/>
<path style="fill:#c7d1bc; stroke:none;" d="M731 40L732 41L731 40z"/>
<path style="fill:#746f7c; stroke:none;" d="M791.667 40.3333C791.222 40.7778 792.278 40.7223 792.333 40.6667C792.778 40.2223 791.722 40.2777 791.667 40.3333z"/>
<path style="fill:#80837f; stroke:none;" d="M900 40C901.248 40.6847 901.549 40.7488 903 41C901.751 40.3151 901.452 40.2513 900 40z"/>
<path style="fill:#746f7c; stroke:none;" d="M786.667 41.3333C786.222 41.7779 787.278 41.7221 787.333 41.6667C787.778 41.2223 786.722 41.2777 786.667 41.3333z"/>
<path style="fill:#78767d; stroke:none;" d="M904.667 41.3333C904.222 41.7779 905.278 41.7221 905.333 41.6667C905.778 41.2223 904.722 41.2778 904.667 41.3333z"/>
<path style="fill:#cdd6c3; stroke:none;" d="M951 41L952 42L951 41z"/>
<path style="fill:#78767d; stroke:none;" d="M781 42C782.248 42.6848 782.549 42.7488 784 43C782.751 42.3151 782.452 42.2512 781 42z"/>
<path style="fill:#cdd6c3; stroke:none;" d="M953 42L954 43L953 42M726 43L727 44L726 43z"/>
<path style="fill:#78767d; stroke:none;" d="M777.667 43.3333C777.222 43.7779 778.278 43.7222 778.333 43.6667C778.778 43.2223 777.722 43.2777 777.667 43.3333M773.667 44.3333C773.222 44.7779 774.278 44.7221 774.333 44.6667C774.778 44.2223 773.722 44.2777 773.667 44.3333z"/>
<path style="fill:#c7d1bc; stroke:none;" d="M723 45L724 46L723 45z"/>
<path style="fill:#ffffff; stroke:none;" d="M291 63C310.646 65.6455 331.426 71.5025 350 78.3696C360.214 82.146 370.402 87.4827 381 90C379.031 59.0759 343.673 40.9997 316 47.3503C306.917 49.4348 295.466 54.2806 291 63z"/>
<path style="fill:#7e7d7f; stroke:none;" d="M761 48C762.249 48.6849 762.548 48.7488 764 49C762.752 48.3153 762.451 48.2512 761 48z"/>
<path style="fill:#e6ebe1; stroke:none;" d="M192 57C193.769 57.779 195.036 57.9124 197 58C195.231 57.2211 193.964 57.0876 192 57z"/>
<path style="fill:#cdd6c3; stroke:none;" d="M197 57C199.052 57.8743 200.747 57.9528 203 58C200.948 57.1258 199.253 57.0472 197 57z"/>
<path style="fill:#b4c2a5; stroke:none;" d="M203 57C205.89 58.2129 208.874 57.9983 212 58C209.11 56.787 206.126 57.0017 203 57z"/>
<path style="fill:#9bae88; stroke:none;" d="M0 73L0 172L92 172C106.526 172 122.645 173.976 137 171.787C142.657 170.924 147.838 167.16 153 164.861C163.785 160.058 174.79 155.701 186 152.001C205.032 145.718 224.891 140.92 245 140.039C253.091 139.685 260.963 140.933 269 141C265.362 134.092 261.28 127.5 258.9 120C254.75 106.917 255.113 92.2161 258.34 79C259.979 72.2855 263.944 66.5083 266 60C197.258 51.3124 129.278 66.3326 61 72.8302C40.5741 74.7741 20.3946 73.1688 0 73z"/>
<path style="fill:#b4c2a5; stroke:none;" d="M228 57C230.89 58.2129 233.874 57.9983 237 58C234.11 56.787 231.126 57.0017 228 57z"/>
<path style="fill:#cdd6c3; stroke:none;" d="M237 57C238.769 57.779 240.036 57.9124 242 58C240.231 57.2211 238.964 57.0876 237 57z"/>
<path style="fill:#e6ebe1; stroke:none;" d="M242 57C243.769 57.779 245.036 57.9124 247 58C245.231 57.2211 243.964 57.0876 242 57M177 58C178.506 58.683 179.315 58.8259 181 59C179.494 58.317 178.685 58.1741 177 58z"/>
<path style="fill:#cdd6c3; stroke:none;" d="M181 58C182.248 58.6848 182.548 58.7488 184 59C182.752 58.3152 182.452 58.2512 181 58z"/>
<path style="fill:#b4c2a5; stroke:none;" d="M184 58C185.506 58.683 186.315 58.8259 188 59C186.494 58.317 185.685 58.1741 184 58M250 58C251.506 58.683 252.315 58.8259 254 59C252.494 58.317 251.685 58.1741 250 58z"/>
<path style="fill:#cdd6c3; stroke:none;" d="M254 58C255.248 58.6848 255.548 58.7488 257 59C255.752 58.3152 255.452 58.2512 254 58z"/>
<path style="fill:#e6ebe1; stroke:none;" d="M257.667 58.3333C257.222 58.7779 258.278 58.7222 258.333 58.6667C258.778 58.2223 257.722 58.2777 257.667 58.3333M166 59C167.248 59.6848 167.548 59.7488 169 60C167.752 59.3152 167.452 59.2512 166 59z"/>
<path style="fill:#cdd6c3; stroke:none;" d="M169 59C170.248 59.6848 170.548 59.7488 172 60C170.752 59.3152 170.452 59.2512 169 59z"/>
<path style="fill:#b4c2a5; stroke:none;" d="M172.667 59.3333C172.222 59.7777 173.278 59.7223 173.333 59.6667C173.778 59.2222 172.722 59.2778 172.667 59.3333M262.667 59.3333C262.222 59.7779 263.278 59.7222 263.333 59.6667C263.778 59.2223 262.722 59.2777 262.667 59.3333z"/>
<path style="fill:#cdd6c3; stroke:none;" d="M264 59C265.248 59.6848 265.548 59.7488 267 60C265.752 59.3152 265.452 59.2512 264 59z"/>
<path style="fill:#e6ebe1; stroke:none;" d="M157.667 60.3333C157.222 60.7777 158.278 60.7223 158.333 60.6667C158.778 60.2222 157.722 60.2778 157.667 60.3333z"/>
<path style="fill:#cdd6c3; stroke:none;" d="M159.667 60.3333C159.222 60.7777 160.278 60.7223 160.333 60.6667C160.778 60.2222 159.722 60.2778 159.667 60.3333z"/>
<path style="fill:#b4c2a5; stroke:none;" d="M161 60C162.248 60.6848 162.548 60.7488 164 61C162.752 60.3152 162.452 60.2512 161 60z"/>
<path style="fill:#e6ebe1; stroke:none;" d="M148.667 61.3333C148.222 61.7777 149.278 61.7222 149.333 61.6667C149.778 61.2222 148.722 61.2778 148.667 61.3333z"/>
<path style="fill:#cdd6c3; stroke:none;" d="M150.667 61.3333C150.222 61.7777 151.278 61.7222 151.333 61.6667C151.778 61.2222 150.722 61.2778 150.667 61.3333z"/>
<path style="fill:#b4c2a5; stroke:none;" d="M152.667 61.3333C152.222 61.7777 153.278 61.7222 153.333 61.6667C153.778 61.2222 152.722 61.2778 152.667 61.3333z"/>
<path style="fill:#e0e6da; stroke:none;" d="M140.667 62.3333C140.222 62.7777 141.278 62.7222 141.333 62.6667C141.778 62.2222 140.722 62.2778 140.667 62.3333z"/>
<path style="fill:#c7d1bc; stroke:none;" d="M142.667 62.3333C142.222 62.7778 143.278 62.7222 143.333 62.6667C143.778 62.2222 142.722 62.2778 142.667 62.3333z"/>
<path style="fill:#e0e6da; stroke:none;" d="M132.667 63.3333C132.222 63.7777 133.278 63.7222 133.333 63.6667C133.778 63.2222 132.722 63.2778 132.667 63.3333z"/>
<path style="fill:#c7d1bc; stroke:none;" d="M134.667 63.3333C134.222 63.7777 135.278 63.7222 135.333 63.6667C135.778 63.2222 134.722 63.2778 134.667 63.3333z"/>
<path style="fill:#9bae88; stroke:none;" d="M290.09 64.2014C286.015 65.9302 283.784 71.3282 281.9 75C276.077 86.3433 274.952 98.7128 277.884 111C281.21 124.936 290.663 138.72 304 144.749C309.124 147.065 314.587 147.285 320 148.499C329.49 150.628 338.785 151.346 348 147.367C365.026 140.017 380.5 123.522 380.985 104C381.074 100.431 382.216 93.724 379.972 90.6991C377.396 87.226 369.891 85.7305 366 84.2029C353.309 79.2202 340.101 75.3131 327 71.5787C318.403 69.1283 309.76 67.1628 301 65.3997C297.801 64.7558 293.266 62.8543 290.09 64.2014z"/>
<path style="fill:#e0e6da; stroke:none;" d="M292 63C293.248 63.6848 293.548 63.7488 295 64C293.752 63.3152 293.452 63.2512 292 63z"/>
<path style="fill:#e6ebe1; stroke:none;" d="M124.667 64.3333C124.222 64.7778 125.278 64.7222 125.333 64.6667C125.778 64.2222 124.722 64.2778 124.667 64.3333z"/>
<path style="fill:#cdd6c3; stroke:none;" d="M126.667 64.3333C126.222 64.7778 127.278 64.7222 127.333 64.6667C127.778 64.2222 126.722 64.2778 126.667 64.3333z"/>
<path style="fill:#b4c2a5; stroke:none;" d="M128.667 64.3333C128.222 64.7778 129.278 64.7222 129.333 64.6667C129.778 64.2222 128.722 64.2778 128.667 64.3333z"/>
<path style="fill:#c7d1bc; stroke:none;" d="M296 64C297.248 64.6848 297.548 64.7488 299 65C297.752 64.3152 297.452 64.2512 296 64z"/>
<path style="fill:#d9e1d2; stroke:none;" d="M117 65C118.248 65.6848 118.548 65.7488 120 66C118.752 65.3152 118.452 65.2512 117 65z"/>
<path style="fill:#b4c2a5; stroke:none;" d="M120.667 65.3333C120.222 65.7777 121.278 65.7222 121.333 65.6667C121.778 65.2222 120.722 65.2778 120.667 65.3333z"/>
<path style="fill:#c7d1bc; stroke:none;" d="M301.667 65.3333C301.222 65.7779 302.278 65.7221 302.333 65.6667C302.778 65.2223 301.722 65.2778 301.667 65.3333z"/>
<path style="fill:#e6ebe1; stroke:none;" d="M109.667 66.3333C109.222 66.7778 110.278 66.7222 110.333 66.6667C110.778 66.2222 109.722 66.2778 109.667 66.3333z"/>
<path style="fill:#cdd6c3; stroke:none;" d="M111.667 66.3333C111.222 66.7778 112.278 66.7222 112.333 66.6667C112.778 66.2222 111.722 66.2778 111.667 66.3333M306.667 66.3333C306.222 66.7779 307.278 66.7222 307.333 66.6667C307.778 66.2223 306.722 66.2777 306.667 66.3333z"/>
<path style="fill:#e6ebe1; stroke:none;" d="M101.667 67.3333C101.222 67.7778 102.278 67.7222 102.333 67.6667C102.778 67.2222 101.722 67.2778 101.667 67.3333z"/>
<path style="fill:#cdd6c3; stroke:none;" d="M103.667 67.3333C103.222 67.7778 104.278 67.7222 104.333 67.6667C104.778 67.2222 103.722 67.2778 103.667 67.3333z"/>
<path style="fill:#b4c2a5; stroke:none;" d="M105.667 67.3333C105.222 67.7778 106.278 67.7222 106.333 67.6667C106.778 67.2222 105.722 67.2778 105.667 67.3333z"/>
<path style="fill:#e0e6da; stroke:none;" d="M311.667 67.3333C311.222 67.7779 312.278 67.7222 312.333 67.6667C312.778 67.2223 311.722 67.2777 311.667 67.3333M94.6667 68.3333C94.2222 68.7778 95.2778 68.7222 95.3333 68.6667C95.7778 68.2222 94.7222 68.2778 94.6667 68.3333z"/>
<path style="fill:#c7d1bc; stroke:none;" d="M96.6667 68.3333C96.2222 68.7778 97.2778 68.7222 97.3333 68.6667C97.7778 68.2222 96.7222 68.2778 96.6667 68.3333z"/>
<path style="fill:#d9e1d2; stroke:none;" d="M315.667 68.3333C315.222 68.7779 316.278 68.7222 316.333 68.6667C316.778 68.2223 315.722 68.2777 315.667 68.3333z"/>
<path style="fill:#e6ebe1; stroke:none;" d="M85.6667 69.3333C85.2222 69.7777 86.2778 69.7222 86.3333 69.6667C86.7778 69.2222 85.7222 69.2778 85.6667 69.3333z"/>
<path style="fill:#cdd6c3; stroke:none;" d="M87 69C88.2484 69.6848 88.5484 69.7488 90 70C88.7516 69.3152 88.4516 69.2512 87 69z"/>
<path style="fill:#e0e6da; stroke:none;" d="M319.667 69.3333C319.222 69.7779 320.278 69.7222 320.333 69.6667C320.778 69.2223 319.722 69.2777 319.667 69.3333z"/>
<path style="fill:#e6ebe1; stroke:none;" d="M76 70C77.2484 70.6848 77.5484 70.7488 79 71C77.7516 70.3152 77.4516 70.2512 76 70z"/>
<path style="fill:#cdd6c3; stroke:none;" d="M79.6667 70.3333C79.2222 70.7778 80.2778 70.7222 80.3333 70.6667C80.7778 70.2222 79.7222 70.2778 79.6667 70.3333z"/>
<path style="fill:#b4c2a5; stroke:none;" d="M81.6667 70.3333C81.2222 70.7778 82.2778 70.7222 82.3333 70.6667C82.7778 70.2222 81.7222 70.2778 81.6667 70.3333z"/>
<path style="fill:#e6ebe1; stroke:none;" d="M323.667 70.3333C323.222 70.7778 324.278 70.7222 324.333 70.6667C324.778 70.2223 323.722 70.2777 323.667 70.3333M67.6667 71.3333C67.2222 71.7778 68.2778 71.7222 68.3333 71.6667C68.7778 71.2222 67.7222 71.2778 67.6667 71.3333z"/>
<path style="fill:#cdd6c3; stroke:none;" d="M69 71C70.2484 71.6848 70.5484 71.7488 72 72C70.7517 71.3152 70.4516 71.2512 69 71z"/>
<path style="fill:#b4c2a5; stroke:none;" d="M72.6667 71.3333C72.2222 71.7778 73.2778 71.7222 73.3333 71.6667C73.7778 71.2222 72.7222 71.2778 72.6667 71.3333z"/>
<path style="fill:#d3dbcb; stroke:none;" d="M326.667 71.3333C326.222 71.7779 327.278 71.7222 327.333 71.6667C327.778 71.2224 326.722 71.2777 326.667 71.3333z"/>
<path style="fill:#cdd6c3; stroke:none;" d="M1010 71L1011 72L1010 71z"/>
<path style="fill:#e6ebe1; stroke:none;" d="M1 72C2.24833 72.6848 2.54845 72.7488 4 73C2.75165 72.3152 2.45158 72.2512 1 72M54 72C55.506 72.683 56.3148 72.8259 58 73C56.494 72.317 55.6852 72.1741 54 72z"/>
<path style="fill:#cdd6c3; stroke:none;" d="M58 72C59.2483 72.6848 59.5484 72.7488 61 73C59.7516 72.3152 59.4516 72.2512 58 72z"/>
<path style="fill:#b4c2a5; stroke:none;" d="M61 72C62.2483 72.6848 62.5484 72.7488 64 73C62.7516 72.3152 62.4516 72.2512 61 72z"/>
<path style="fill:#e0e6da; stroke:none;" d="M330.667 72.3333C330.222 72.7779 331.278 72.7222 331.333 72.6667C331.778 72.2223 330.722 72.2777 330.667 72.3333z"/>
<path style="fill:#cdd6c3; stroke:none;" d="M1012 72L1013 73L1012 72z"/>
<path style="fill:#b4c2a5; stroke:none;" d="M7 73C8.50606 73.683 9.31478 73.8259 11 74C9.49396 73.317 8.68521 73.1741 7 73z"/>
<path style="fill:#cdd6c3; stroke:none;" d="M11 73C12.769 73.7789 14.0359 73.9124 16 74C14.2309 73.2211 12.9641 73.0876 11 73z"/>
<path style="fill:#e6ebe1; stroke:none;" d="M16 73C22.6867 75.8058 32.7674 74 40 74C33.3133 71.1942 23.2326 73 16 73z"/>
<path style="fill:#cdd6c3; stroke:none;" d="M40 73C42.0521 73.8742 43.7472 73.9528 46 74C43.9479 73.1258 42.2528 73.0472 40 73z"/>
<path style="fill:#b4c2a5; stroke:none;" d="M46 73C47.5061 73.683 48.3148 73.8259 50 74C48.494 73.317 47.6852 73.1741 46 73z"/>
<path style="fill:#d3dbcb; stroke:none;" d="M333.667 73.3333C333.222 73.7779 334.278 73.7221 334.333 73.6667C334.778 73.2224 333.722 73.2777 333.667 73.3333z"/>
<path style="fill:#e0e6da; stroke:none;" d="M340.667 75.3333C340.222 75.7779 341.278 75.7222 341.333 75.6667C341.778 75.2224 340.722 75.2777 340.667 75.3333M343.667 76.3333C343.222 76.7779 344.278 76.7222 344.333 76.6667C344.778 76.2223 343.722 76.2777 343.667 76.3333M346.667 77.3333C346.222 77.7779 347.278 77.7222 347.333 77.6667C347.778 77.2223 346.722 77.2777 346.667 77.3333M349.667 78.3333C349.222 78.7779 350.278 78.7222 350.333 78.6667C350.778 78.2223 349.722 78.2777 349.667 78.3333z"/>
<path style="fill:#cdd6c3; stroke:none;" d="M1025 78L1026 79L1025 78z"/>
<path style="fill:#e0e6da; stroke:none;" d="M352.667 79.3333C352.222 79.7779 353.278 79.7221 353.333 79.6667C353.778 79.2223 352.722 79.2777 352.667 79.3333z"/>
<path style="fill:#c7d1bc; stroke:none;" d="M1036 83L1037 84L1036 83M371 86L372 87L371 86M1050 89L1051 90L1050 89z"/>
<path style="fill:#cdd6c3; stroke:none;" d="M405 101L406 102L405 101M407 102L408 103L407 102M409 103L410 104L409 103M411 104L412 105L411 104M413 105L414 106L413 105M428 113L429 114L428 113z"/>
<path style="fill:#746f7c; stroke:none;" d="M994.333 114.667C994.278 114.722 994.222 115.778 994.667 115.333C994.722 115.278 994.778 114.222 994.333 114.667z"/>
<path style="fill:#78767d; stroke:none;" d="M995.333 117.667C995.278 117.722 995.222 118.778 995.667 118.333C995.722 118.278 995.778 117.222 995.333 117.667z"/>
<path style="fill:#cdd6c3; stroke:none;" d="M437 118L438 119L437 118z"/>
<path style="fill:#ffffff; stroke:none;" d="M618 172L856 172C849.049 159.918 837.161 146.725 825 139.728C817.095 135.181 807.519 132.761 799 129.576C784.082 123.998 768.083 119.179 752 119.179C729.962 119.179 707.848 127 687 133.28C669.771 138.47 655.25 146.059 640 155.576C632.568 160.215 623.561 165.169 618 172z"/>
<path style="fill:#746f7c; stroke:none;" d="M996.333 121.667C996.278 121.722 996.222 122.778 996.667 122.333C996.722 122.278 996.778 121.222 996.333 121.667z"/>
<path style="fill:#cdd6c3; stroke:none;" d="M446 123L447 124L446 123M612 123L613 124L612 123M448 124L449 125L448 124z"/>
<path style="fill:#78767d; stroke:none;" d="M997 125L997 128C997.696 126.446 997.696 126.554 997 125z"/>
<path style="fill:#cdd6c3; stroke:none;" d="M605 127L606 128L605 127z"/>
<path style="fill:#838980; stroke:none;" d="M998 129L998 132C998.696 130.446 998.696 130.554 998 129z"/>
<path style="fill:#b4c2a5; stroke:none;" d="M589.667 135.333C589.222 135.778 590.278 135.722 590.333 135.667C590.778 135.222 589.722 135.278 589.667 135.333z"/>
<path style="fill:#7c7d7e; stroke:none;" d="M999 135L999 141C999.951 138.715 999.951 137.285 999 135z"/>
<path style="fill:#d3dbcb; stroke:none;" d="M587 136L588 137L587 136z"/>
<path style="fill:#8e9a84; stroke:none;" d="M240 140C246.202 142.603 255.298 141 262 141C255.798 138.397 246.702 140 240 140z"/>
<path style="fill:#b4c2a5; stroke:none;" d="M577.667 140.333C577.222 140.778 578.278 140.722 578.333 140.667C578.778 140.222 577.722 140.278 577.667 140.333z"/>
<path style="fill:#9180a0; stroke:none;" d="M826 140L827 141L826 140z"/>
<path style="fill:#70687b; stroke:none;" d="M231 141C232.769 141.779 234.036 141.912 236 142C234.231 141.221 232.964 141.088 231 141z"/>
<path style="fill:#5f4776; stroke:none;" d="M139 171C146.159 174.004 157.256 172 165 172L223 172L424 172C419.729 169.947 414.624 169.591 410 168.576C401.657 166.743 393.364 164.729 385 162.997C379.93 161.947 374.227 159.478 369 160.355C362.825 161.391 356.991 165.894 351 167.897C341.641 171.025 330.791 171.808 321 170.829C308.073 169.537 295.272 164.545 285.004 156.572C279.867 152.583 273.998 143.036 267.829 141.318C264.517 140.395 260.41 141 257 141C248.923 141 241.029 141.028 233 141.831C199.041 145.227 170.106 158.049 139 171z"/>
<path style="fill:#c3bacb; stroke:none;" d="M664 141L665 142L664 141z"/>
<path style="fill:#b9aec3; stroke:none;" d="M827 141L828 142L827 141z"/>
<path style="fill:#78767d; stroke:none;" d="M223 142C224.248 142.685 224.548 142.749 226 143C224.752 142.315 224.452 142.251 223 142z"/>
<path style="fill:#e0e6da; stroke:none;" d="M487.667 142.333C487.222 142.778 488.278 142.722 488.333 142.667C488.778 142.222 487.722 142.278 487.667 142.333z"/>
<path style="fill:#c3bacb; stroke:none;" d="M662 142L663 143L662 142z"/>
<path style="fill:#746f7c; stroke:none;" d="M217 143C218.248 143.685 218.548 143.749 220 144C218.752 143.315 218.452 143.251 217 143z"/>
<path style="fill:#afa3ba; stroke:none;" d="M660 143L661 144L660 143z"/>
<path style="fill:#838980; stroke:none;" d="M211.667 144.333C211.222 144.778 212.278 144.722 212.333 144.667C212.778 144.222 211.722 144.278 211.667 144.333z"/>
<path style="fill:#bac7ad; stroke:none;" d="M565.667 144.333C565.222 144.778 566.278 144.722 566.333 144.667C566.778 144.222 565.722 144.278 565.667 144.333z"/>
<path style="fill:#a597b2; stroke:none;" d="M658 144L659 145L658 144z"/>
<path style="fill:#9b8ca9; stroke:none;" d="M831 144L832 145L831 144z"/>
<path style="fill:#d9e1d2; stroke:none;" d="M497.667 145.333C497.222 145.778 498.278 145.722 498.333 145.667C498.778 145.222 497.722 145.278 497.667 145.333z"/>
<path style="fill:#c0ccb4; stroke:none;" d="M561.667 145.333C561.222 145.778 562.278 145.722 562.333 145.667C562.778 145.222 561.722 145.278 561.667 145.333z"/>
<path style="fill:#9180a0; stroke:none;" d="M656 145L657 146L656 145z"/>
<path style="fill:#afa3ba; stroke:none;" d="M832 145L833 146L832 145z"/>
<path style="fill:#d3dbcb; stroke:none;" d="M501.667 146.333C501.222 146.778 502.278 146.722 502.333 146.667C502.778 146.222 501.722 146.278 501.667 146.333z"/>
<path style="fill:#c0ccb4; stroke:none;" d="M557.667 146.333C557.222 146.778 558.278 146.722 558.333 146.667C558.778 146.222 557.722 146.278 557.667 146.333z"/>
<path style="fill:#c3bacb; stroke:none;" d="M833 146L834 147L833 146z"/>
<path style="fill:#5f4776; stroke:none;" d="M310 147C313.944 149.71 319.291 149.903 324 150C319.788 147.976 314.623 147.587 310 147z"/>
<path style="fill:#78767d; stroke:none;" d="M313.667 147.333C313.222 147.778 314.278 147.722 314.333 147.667C314.778 147.222 313.722 147.278 313.667 147.333z"/>
<path style="fill:#c7d1bc; stroke:none;" d="M505.667 147.333C505.222 147.778 506.278 147.722 506.333 147.667C506.778 147.222 505.722 147.278 505.667 147.333z"/>
<path style="fill:#e6ebe1; stroke:none;" d="M507.667 147.333C507.222 147.778 508.278 147.722 508.333 147.667C508.778 147.222 507.722 147.278 507.667 147.333z"/>
<path style="fill:#d9e1d2; stroke:none;" d="M551 147C552.248 147.685 552.548 147.749 554 148C552.752 147.315 552.452 147.251 551 147z"/>
<path style="fill:#c3bacb; stroke:none;" d="M653 147L654 148L653 147z"/>
<path style="fill:#cdc5d4; stroke:none;" d="M834 147L835 148L834 147z"/>
<path style="fill:#78767d; stroke:none;" d="M196.667 148.333C196.222 148.778 197.278 148.722 197.333 148.667C197.778 148.222 196.722 148.278 196.667 148.333z"/>
<path style="fill:#80837f; stroke:none;" d="M319.667 148.333C319.222 148.778 320.278 148.722 320.333 148.667C320.778 148.222 319.722 148.278 319.667 148.333z"/>
<path style="fill:#d3dbcb; stroke:none;" d="M512.667 148.333C512.222 148.778 513.278 148.722 513.333 148.667C513.778 148.222 512.722 148.278 512.667 148.333z"/>
<path style="fill:#e6ebe1; stroke:none;" d="M544.667 148.333C544.222 148.778 545.278 148.722 545.333 148.667C545.778 148.222 544.722 148.278 544.667 148.333z"/>
<path style="fill:#c7d1bc; stroke:none;" d="M546.667 148.333C546.222 148.778 547.278 148.722 547.333 148.667C547.778 148.222 546.722 148.278 546.667 148.333z"/>
<path style="fill:#a597b2; stroke:none;" d="M651 148L652 149L651 148z"/>
<path style="fill:#80837f; stroke:none;" d="M1000 148L1000 170C1002.22 164.713 1002.22 153.287 1000 148z"/>
<path style="fill:#b4c2a5; stroke:none;" d="M518 149C519.248 149.685 519.548 149.749 521 150C519.752 149.315 519.452 149.251 518 149z"/>
<path style="fill:#cdd6c3; stroke:none;" d="M521 149C522.769 149.779 524.036 149.912 526 150C524.231 149.221 522.964 149.088 521 149z"/>
<path style="fill:#e6ebe1; stroke:none;" d="M526 149C528.613 150.098 531.164 149.993 534 150C531.387 148.902 528.836 149.007 526 149z"/>
<path style="fill:#cdd6c3; stroke:none;" d="M534 149C535.769 149.779 537.036 149.912 539 150C537.231 149.221 535.964 149.088 534 149z"/>
<path style="fill:#b4c2a5; stroke:none;" d="M539 149C540.248 149.685 540.548 149.749 542 150C540.752 149.315 540.452 149.251 539 149z"/>
<path style="fill:#5f4776; stroke:none;" d="M324 150C325.769 150.779 327.036 150.912 329 151C327.231 150.221 325.964 150.088 324 150z"/>
<path style="fill:#80837f; stroke:none;" d="M329.667 150.333C329.222 150.778 330.278 150.722 330.333 150.667C330.778 150.222 329.722 150.278 329.667 150.333z"/>
<path style="fill:#c3bacb; stroke:none;" d="M648 150L649 151L648 150z"/>
<path style="fill:#a597b2; stroke:none;" d="M646 151L647 152L646 151z"/>
<path style="fill:#b9aec3; stroke:none;" d="M643 153L644 154L643 153z"/>
<path style="fill:#9180a0; stroke:none;" d="M641 154L642 155L641 154z"/>
<path style="fill:#cdc5d4; stroke:none;" d="M640 155L641 156L640 155z"/>
<path style="fill:#9180a0; stroke:none;" d="M638 156L639 157L638 156z"/>
<path style="fill:#a597b2; stroke:none;" d="M635 158L636 159L635 158z"/>
<path style="fill:#c3bacb; stroke:none;" d="M845 158L846 159L845 158z"/>
<path style="fill:#78767d; stroke:none;" d="M369.667 159.333C369.222 159.778 370.278 159.722 370.333 159.667C370.778 159.222 369.722 159.278 369.667 159.333z"/>
<path style="fill:#b9aec3; stroke:none;" d="M846 159L847 160L846 159z"/>
<path style="fill:#838980; stroke:none;" d="M374 160C375.248 160.685 375.548 160.749 377 161C375.752 160.315 375.452 160.251 374 160z"/>
<path style="fill:#9180a0; stroke:none;" d="M632 160L633 161L632 160z"/>
<path style="fill:#9b8ca9; stroke:none;" d="M847 160L848 161L847 160z"/>
<path style="fill:#80837f; stroke:none;" d="M378 161C379.248 161.685 379.548 161.749 381 162C379.752 161.315 379.451 161.251 378 161z"/>
<path style="fill:#cdc5d4; stroke:none;" d="M631 161L632 162L631 161z"/>
<path style="fill:#78767d; stroke:none;" d="M382.667 162.333C382.222 162.778 383.278 162.722 383.333 162.667C383.778 162.222 382.722 162.278 382.667 162.333z"/>
<path style="fill:#9180a0; stroke:none;" d="M629 162L630 163L629 162z"/>
<path style="fill:#80837f; stroke:none;" d="M387.667 163.333C387.222 163.778 388.278 163.722 388.333 163.667C388.778 163.222 387.722 163.278 387.667 163.333z"/>
<path style="fill:#b9aec3; stroke:none;" d="M628 163L629 164L628 163z"/>
<path style="fill:#cdc5d4; stroke:none;" d="M850 164L851 165L850 164z"/>
<path style="fill:#838980; stroke:none;" d="M396 165C397.248 165.685 397.548 165.749 399 166C397.752 165.315 397.452 165.251 396 165z"/>
<path style="fill:#afa3ba; stroke:none;" d="M625 165L626 166L625 165M851 165L852 166L851 165z"/>
<path style="fill:#7c7d7e; stroke:none;" d="M400.667 166.333C400.222 166.778 401.278 166.722 401.333 166.667C401.778 166.222 400.722 166.278 400.667 166.333z"/>
<path style="fill:#80837f; stroke:none;" d="M405.667 167.333C405.222 167.778 406.278 167.722 406.333 167.667C406.778 167.222 405.722 167.278 405.667 167.333z"/>
<path style="fill:#9180a0; stroke:none;" d="M622 167L623 168L622 167z"/>
<path style="fill:#78767d; stroke:none;" d="M409 168C410.248 168.685 410.548 168.749 412 169C410.752 168.315 410.452 168.251 409 168z"/>
<path style="fill:#b9aec3; stroke:none;" d="M621 168L622 169L621 168z"/>
<path style="fill:#7c7d7e; stroke:none;" d="M414.667 169.333C414.222 169.778 415.278 169.722 415.333 169.667C415.778 169.222 414.722 169.278 414.667 169.333z"/>
<path style="fill:#afa3ba; stroke:none;" d="M854 169L855 170L854 169z"/>
<path style="fill:#7c7d7e; stroke:none;" d="M419.667 170.333C419.222 170.778 420.278 170.722 420.333 170.667C420.778 170.222 419.722 170.278 419.667 170.333z"/>
<path style="fill:#9b8ca9; stroke:none;" d="M618 170L619 171L618 170z"/>
<path style="fill:#c3bacb; stroke:none;" d="M617 171L618 172L617 171z"/>
</svg>
